<svg id="Ebene_1" data-name="Ebene 1" xmlns="http://www.w3.org/2000/svg" viewBox="0 0 297.2 176"><defs><style>.cls-1{fill:#22b573;}.cls-2{fill:#333;}</style></defs><title>lutsgameslogo</title><rect class="cls-1" x="89" y="188" width="275" height="91" transform="translate(-59.23 -195.45) rotate(5.33)"/><rect class="cls-2" x="84" y="262" width="293" height="81" transform="translate(-99.04 -161.56) rotate(-3.32)"/><path class="cls-2" d="M162.72,187.69h8.81v60.84h29.15v7.39h-38Z" transform="translate(-81.9 -175.42)"/><path class="cls-2" d="M239.46,242.56c0,5.06.1,9.52.41,13.36H232l-.51-8h-.2a18.43,18.43,0,0,1-16.2,9.11c-7.69,0-16.9-4.25-16.9-21.46V206.93h8.91v27.13c0,9.31,2.83,15.59,10.93,15.59a12.88,12.88,0,0,0,11.74-8.1,13,13,0,0,0,.81-4.56V206.93h8.91Z" transform="translate(-81.9 -175.42)"/><path class="cls-2" d="M254.74,192.86v14.07H267.5v6.78H254.74v26.42c0,6.07,1.72,9.52,6.68,9.52a19.82,19.82,0,0,0,5.16-.61l.4,6.68a21.8,21.8,0,0,1-7.9,1.21c-4.15,0-7.49-1.32-9.62-3.74-2.53-2.63-3.44-7-3.44-12.76V213.71h-7.59v-6.78H246V195.19Z" transform="translate(-81.9 -175.42)"/><path class="cls-2" d="M266.08,246.81a23.35,23.35,0,0,0,11.74,3.54c6.48,0,9.52-3.24,9.52-7.29,0-4.25-2.53-6.58-9.11-9-8.81-3.14-13-8-13-13.87,0-7.9,6.38-14.37,16.9-14.37a24.45,24.45,0,0,1,12,3L292,215.33a19.06,19.06,0,0,0-10-2.83c-5.26,0-8.2,3-8.2,6.68,0,4,2.94,5.87,9.31,8.3,8.5,3.24,12.86,7.49,12.86,14.78,0,8.6-6.68,14.68-18.32,14.68a28,28,0,0,1-13.77-3.34Z" transform="translate(-81.9 -175.42)"/><path class="cls-1" d="M169,321.47a63.54,63.54,0,0,1-21,3.75c-10.32,0-18.83-2.63-25.51-9-5.87-5.67-9.52-14.78-9.52-25.41.1-20.35,14.07-35.23,36.95-35.23,7.9,0,14.07,1.72,17,3.14l-2.13,7.19A35.37,35.37,0,0,0,149.73,263c-16.6,0-27.43,10.33-27.43,27.43,0,17.31,10.43,27.53,26.32,27.53,5.77,0,9.72-.81,11.74-1.82V295.76H146.49v-7.09H169Z" transform="translate(-81.9 -175.42)"/><path class="cls-1" d="M194.88,324.51l-.71-6.17h-.3a18.25,18.25,0,0,1-15,7.29c-9.92,0-15-7-15-14.07,0-11.84,10.53-18.32,29.46-18.22v-1c0-4-1.11-11.34-11.13-11.34a24.41,24.41,0,0,0-12.75,3.64l-2-5.87a30.41,30.41,0,0,1,16.1-4.35c15,0,18.63,10.22,18.63,20v18.32a69,69,0,0,0,.81,11.74Zm-1.32-25c-9.72-.2-20.75,1.52-20.75,11,0,5.77,3.85,8.5,8.4,8.5a12.19,12.19,0,0,0,11.84-8.2,9.29,9.29,0,0,0,.51-2.83Z" transform="translate(-81.9 -175.42)"/><path class="cls-1" d="M202.17,288.78c0-5.06-.1-9.21-.4-13.26h7.79l.4,7.9h.3c2.73-4.66,7.29-9,15.39-9a14.48,14.48,0,0,1,13.87,9.82h.2a20.17,20.17,0,0,1,5.47-6.38A16.72,16.72,0,0,1,256,274.4c6.48,0,16.1,4.25,16.1,21.26v28.85h-8.71V296.78c0-9.41-3.44-15.08-10.63-15.08-5.06,0-9,3.75-10.53,8.1a14.66,14.66,0,0,0-.71,4.45v30.27h-8.71V295.16c0-7.79-3.44-13.46-10.22-13.46-5.57,0-9.62,4.45-11,8.91a12.28,12.28,0,0,0-.71,4.35v29.56h-8.71Z" transform="translate(-81.9 -175.42)"/><path class="cls-1" d="M277.18,301.63c.2,12,7.9,17,16.8,17a32.21,32.21,0,0,0,13.56-2.53l1.52,6.38c-3.14,1.42-8.5,3-16.3,3-15.08,0-24.09-9.92-24.09-24.7s8.71-26.42,23-26.42c16,0,20.25,14.07,20.25,23.08a33.73,33.73,0,0,1-.3,4.15Zm26.12-6.38c.1-5.67-2.33-14.47-12.35-14.47-9,0-13,8.3-13.67,14.47Z" transform="translate(-81.9 -175.42)"/><path class="cls-1" d="M307.35,315.4a23.35,23.35,0,0,0,11.74,3.54c6.48,0,9.52-3.24,9.52-7.29,0-4.25-2.53-6.58-9.11-9-8.81-3.14-13-8-13-13.87,0-7.9,6.38-14.37,16.9-14.37a24.45,24.45,0,0,1,12,3l-2.23,6.48a19.06,19.06,0,0,0-10-2.83c-5.26,0-8.2,3-8.2,6.68,0,4,2.94,5.87,9.31,8.3,8.5,3.24,12.86,7.49,12.86,14.78,0,8.6-6.68,14.68-18.32,14.68a27.94,27.94,0,0,1-13.77-3.34Z" transform="translate(-81.9 -175.42)"/></svg>